<?xml version="1.0" encoding="UTF-8"?>
<svg width="154px" height="173px" viewBox="0 0 154 173" version="1.1" xmlns="http://www.w3.org/2000/svg" xmlns:xlink="http://www.w3.org/1999/xlink">
    <!-- Generator: Sketch 50.2 (55047) - http://www.bohemiancoding.com/sketch -->
    <title>logo</title>
    <desc>Created with Sketch.</desc>
    <defs></defs>
    <g id="Page-1" stroke="none" stroke-width="1" fill="none" fill-rule="evenodd">
        <g id="logo">
            <g id="Group-2">
                <polygon id="Path" fill="#FF9801" points="40.7890625 144.181152 57.6650391 144.181152 57.6650391 46.3466797 17.0263672 46.3466797 17.0263672 30.9228516 130.371094 30.9228516 130.371094 46.3466797 153.65332 23.3945312 130.371094 0.0732421875 130.371094 15.0859375 0.594726562 15.0859375 0.594726562 61.7587891 40.7890625 61.7587891"></polygon>
                <polygon id="Path-3" fill="#E68900" points="49.026123 143.880371 40.9929199 143.880371 40.7922363 61.7644043 0.631225586 61.7644043 0.631225586 15.0769043 130.446411 15.0769043 130.446411 0.142211914 153.666626 23.4836426 9.25195312 23.140625 9.25195312 53.3779297 49.026123 53.3779297"></polygon>
            </g>
            <g id="Group-3" transform="translate(18.000000, 30.000000)">
                <polygon id="Path-2" stroke="#BDBDBD" fill="#FFFFFF" points="96.1884766 0.735351562 96.1884766 15.0849609 56.5273438 15.0849609 56.5273438 113.957031 22.5820312 113.957031 22.5820312 97.859375 0.75390625 119.81543 22.5820312 142.255859 22.5820312 127.681641 72.8671875 127.681641 72.8671875 32.3837891 111.949219 32.3837891 111.949219 0.735351562"></polygon>
                <polygon id="Path-4" fill="#BDBDBD" points="103.987549 1.0378418 111.537354 1.0378418 111.537354 31.8862305 72.4681396 32.0578613 72.4681396 127.198975 22.1575928 127.198975 22.1575928 141.164062 1.49853516 119.876953 64.9091797 119.876953 64.9091797 23.9997559 103.987549 23.9997559"></polygon>
            </g>
        </g>
    </g>
</svg>